<?xml version="1.0" encoding="utf-8"?>
<!-- Generator: Adobe Illustrator 22.0.0, SVG Export Plug-In . SVG Version: 6.00 Build 0)  -->
<svg version="1.1" id="Layer_1" xmlns="http://www.w3.org/2000/svg" xmlns:xlink="http://www.w3.org/1999/xlink" x="0px" y="0px"
	 viewBox="0 0 70 70" style="enable-background:new 0 0 70 70;" xml:space="preserve">
<style type="text/css">
	.st0{fill:#00BEBE;}
	.st1{fill:#AFAA04;}
	.st2{fill:#DBDB00;}
	.st3{fill:#E5E5E5;}
	.st4{fill:#FFFFFF;}
	.st5{fill:none;stroke:#FFFFFF;stroke-width:2;stroke-miterlimit:10;}
	.st6{fill:none;stroke:#00BEBE;stroke-width:2;stroke-linecap:round;stroke-linejoin:round;stroke-miterlimit:10;}
	.st7{fill:#C5C3C3;}
	.st8{fill:#ECECEC;}
	.st9{fill:#F3EE5C;}
	.st10{fill:#003B39;}
	.st11{fill:#C2EAE8;}
	.st12{fill:#C4C4C4;}
	.st13{fill:#595959;}
	.st14{fill:none;stroke:#003B39;stroke-miterlimit:10;}
	.st15{fill:none;stroke:#FFFFFF;stroke-miterlimit:10;}
	.st16{fill:#F3360A;}
	.st17{opacity:0.31;clip-path:url(#SVGID_2_);}
	.st18{fill:#A5A5A5;}
	.st19{fill:#B21F0B;}
	.st20{fill:#CE2C0D;}
	.st21{fill:#A09C07;}
	.st22{fill:#F2C5B0;}
	.st23{fill:#D6A896;}
	.st24{fill:#C1978A;}
	.st25{fill:#F4D1C3;}
</style>
<rect x="5.2" y="14.8" class="st0" width="59.5" height="40.4"/>
<path class="st4" d="M35,28.2c-3.8,0-6.8,3-6.8,6.8s3,6.8,6.8,6.8s6.8-3,6.8-6.8S38.8,28.2,35,28.2z M35,26c0.6,0,1-0.4,1-1v-4.4
	c0-0.6-0.4-1-1-1s-1,0.4-1,1V25C34,25.5,34.4,26,35,26z M26,35c0-0.6-0.4-1-1-1h-4.4c-0.6,0-1,0.4-1,1c0,0.6,0.4,1,1,1H25
	C25.5,36,26,35.6,26,35z M27.2,28.6c0.4,0.4,1,0.4,1.4,0s0.4-1,0-1.4l-3.1-3.1c-0.4-0.4-1-0.4-1.4,0c-0.4,0.4-0.4,1,0,1.4L27.2,28.6
	z M42.8,28.6l3.1-3.1c0.4-0.4,0.4-1,0-1.4c-0.4-0.4-1-0.4-1.4,0l-3.1,3.1c-0.4,0.4-0.4,1,0,1.4S42.4,29,42.8,28.6z M49.4,34H45
	c-0.6,0-1,0.4-1,1c0,0.6,0.4,1,1,1h4.4c0.6,0,1-0.4,1-1C50.4,34.4,50,34,49.4,34z M27.2,41.4l-3.1,3.1c-0.4,0.4-0.4,1,0,1.4
	c0.4,0.4,1,0.4,1.4,0l3.1-3.1c0.4-0.4,0.4-1,0-1.4C28.2,41,27.6,41,27.2,41.4z M42.8,41.4c-0.4-0.4-1-0.4-1.4,0
	c-0.4,0.4-0.4,1,0,1.4l3.1,3.1c0.4,0.4,1,0.4,1.4,0c0.4-0.4,0.4-1,0-1.4L42.8,41.4z M35,44c-0.6,0-1,0.4-1,1v4.4c0,0.6,0.4,1,1,1
	s1-0.4,1-1V45C36,44.5,35.6,44,35,44z"/>
</svg>
