<?xml version="1.0" encoding="utf-8"?>
<!-- Generator: Adobe Illustrator 22.0.0, SVG Export Plug-In . SVG Version: 6.00 Build 0)  -->
<svg version="1.1" id="Layer_1" xmlns="http://www.w3.org/2000/svg" xmlns:xlink="http://www.w3.org/1999/xlink" x="0px" y="0px"
	 viewBox="0 0 70 70" style="enable-background:new 0 0 70 70;" xml:space="preserve">
<style type="text/css">
	.st0{fill:#00BEBE;}
	.st1{fill:#AFAA04;}
	.st2{fill:#DBDB00;}
	.st3{fill:#E5E5E5;}
	.st4{fill:#FFFFFF;}
	.st5{fill:none;stroke:#FFFFFF;stroke-width:2;stroke-miterlimit:10;}
	.st6{fill:none;stroke:#00BEBE;stroke-width:2;stroke-linecap:round;stroke-linejoin:round;stroke-miterlimit:10;}
	.st7{fill:#C5C3C3;}
	.st8{fill:#ECECEC;}
	.st9{fill:#F3EE5C;}
	.st10{fill:#003B39;}
	.st11{fill:#C2EAE8;}
	.st12{fill:#C4C4C4;}
	.st13{fill:#595959;}
	.st14{fill:none;stroke:#003B39;stroke-miterlimit:10;}
	.st15{fill:none;stroke:#FFFFFF;stroke-miterlimit:10;}
	.st16{fill:#F3360A;}
	.st17{opacity:0.31;clip-path:url(#SVGID_2_);}
	.st18{fill:#A5A5A5;}
	.st19{fill:#B21F0B;}
	.st20{fill:#CE2C0D;}
	.st21{fill:#A09C07;}
	.st22{fill:#F2C5B0;}
	.st23{fill:#D6A896;}
	.st24{fill:#C1978A;}
	.st25{fill:#F4D1C3;}
</style>
<path class="st0" d="M61.3,32.7H8.7c-1.1,0-2-0.9-2-2v-8.1c0-1.1,0.9-2,2-2h52.7c1.1,0,2,0.9,2,2v8.1C63.3,31.8,62.4,32.7,61.3,32.7
	z"/>
<path class="st0" d="M58.5,64h-47c-1.1,0-2-0.9-2-2V37.8c0-1.1,0.9-2,2-2h47c1.1,0,2,0.9,2,2V62C60.5,63.1,59.6,64,58.5,64z"/>
<g>
	<path class="st0" d="M41.4,17.6h11.3c1.1,0,2-0.9,2-2V8c0-1.6-1.8-2.6-3.1-1.7l-11.3,7.5C38.6,15,39.4,17.6,41.4,17.6z"/>
	<path class="st0" d="M28.6,17.6H17.3c-1.1,0-2-0.9-2-2V8c0-1.6,1.8-2.6,3.1-1.7l11.3,7.5C31.4,15,30.6,17.6,28.6,17.6z"/>
</g>
<circle class="st0" cx="35" cy="15.8" r="2.1"/>
</svg>
