<?xml version="1.0" encoding="utf-8"?>
<!-- Generator: Adobe Illustrator 22.0.0, SVG Export Plug-In . SVG Version: 6.00 Build 0)  -->
<svg version="1.1" id="Layer_1" xmlns="http://www.w3.org/2000/svg" xmlns:xlink="http://www.w3.org/1999/xlink" x="0px" y="0px"
	 viewBox="0 0 36 36" style="enable-background:new 0 0 36 36;" xml:space="preserve">
<style type="text/css">
	.st0{fill:#00BEBE;}
	.st1{fill:#AFAA04;}
	.st2{fill:#DBDB00;}
	.st3{fill:#E5E5E5;}
	.st4{fill:#FFFFFF;}
	.st5{fill:none;stroke:#FFFFFF;stroke-width:2;stroke-miterlimit:10;}
	.st6{fill:none;stroke:#00BEBE;stroke-width:2;stroke-linecap:round;stroke-linejoin:round;stroke-miterlimit:10;}
	.st7{fill:#C5C3C3;}
	.st8{fill:#ECECEC;}
	.st9{fill:#F3EE5C;}
	.st10{fill:#003B39;}
	.st11{fill:#C2EAE8;}
	.st12{fill:#C4C4C4;}
	.st13{fill:#595959;}
	.st14{fill:none;stroke:#003B39;stroke-miterlimit:10;}
	.st15{fill:none;stroke:#FFFFFF;stroke-miterlimit:10;}
	.st16{fill:#F3360A;}
	.st17{opacity:0.31;clip-path:url(#SVGID_2_);}
	.st18{fill:#A5A5A5;}
	.st19{fill:#B21F0B;}
	.st20{fill:#CE2C0D;}
	.st21{fill:#A09C07;}
	.st22{fill:#F2C5B0;}
	.st23{fill:#D6A896;}
	.st24{fill:#C1978A;}
	.st25{fill:#F4D1C3;}
</style>
<circle class="st0" cx="7.3" cy="23.8" r="2.3"/>
<g>
	<path class="st0" d="M9.6,23.8c0-1.3-1-2.3-2.3-2.3s-2.3,1-2.3,2.3c0,0.1,0,0.2,0,0.3h4.5C9.6,24,9.6,23.9,9.6,23.8z"/>
	<path class="st0" d="M4.3,11.4c-1.7,0-3,1.3-3,3v6.6c0,1.6,1.2,2.9,2.8,3c0-0.1,0-0.2,0-0.3c0-1.8,1.5-3.3,3.3-3.3s3.3,1.5,3.3,3.3
		c0,0.1,0,0.2,0,0.3h8.2V11.4H4.3z"/>
</g>
<circle class="st0" cx="28" cy="23.8" r="2.3"/>
<g>
	<path class="st0" d="M30.3,23.8c0-1.3-1-2.3-2.3-2.3s-2.3,1-2.3,2.3c0,0.1,0,0.2,0,0.3h4.5C30.2,24,30.3,23.9,30.3,23.8z"/>
	<path class="st0" d="M33.3,18.9l-1.6-0.8c-1-0.5-1.9-1.4-2.5-2.4l-2.2-4c-0.6-1-1.6-1.8-2.8-1.9c-1.2-0.1-2.3,0.4-3,1.5
		c-0.2,0.3-0.3,0.7-0.3,1.1v8c0,2,1.6,3.6,3.6,3.6h0.3c0-0.1,0-0.2,0-0.3c0-1.8,1.5-3.3,3.3-3.3s3.3,1.5,3.3,3.3c0,0.1,0,0.2,0,0.3
		h1.3c0.2,0,0.5-0.1,0.7-0.2C35.4,23,35.3,20,33.3,18.9z"/>
</g>
</svg>
