<?xml version="1.0" encoding="utf-8"?>
<!-- Generator: Adobe Illustrator 22.0.0, SVG Export Plug-In . SVG Version: 6.00 Build 0)  -->
<svg version="1.1" id="Layer_1" xmlns="http://www.w3.org/2000/svg" xmlns:xlink="http://www.w3.org/1999/xlink" x="0px" y="0px"
	 viewBox="0 0 36 36" style="enable-background:new 0 0 36 36;" xml:space="preserve">
<path class="st0" d="M32.8,18.2l-1.5-1.5l-0.9-1.9l-2.1-0.3l-1.9-1l-1.9,1l-2.1,0.3l-0.9,1.9l-1.5,1.5l0.3,2.1l-0.3,2.1l1.5,1.5
	l0.9,1.9l2.1,0.3l1.9,1l1.9-1l2.1-0.3l0.9-1.9l1.5-1.5l-0.3-2.1L32.8,18.2z M26.4,27.9l-1.9-1l-1.9-0.3v7.5l3.8-3.7l3.8,3.7v-7.5
	l-1.8,0.3L26.4,27.9z M19,22.7l0.4-2.4L19,17.9l1.7-1.7l1.1-2.2l2.4-0.4l2.2-1.1l0,0V5.1c0-1.7-1.3-3-3-3H7.8c-1.7,0-3,1.3-3,3v22.9
	c0,1.6,1.3,3,3,3h13.8v-4.9l-0.9-1.8L19,22.7z M9,6.5h13.7c0.6,0,1,0.4,1,1s-0.4,1-1,1H9c-0.6,0-1-0.4-1-1S8.4,6.5,9,6.5z M9,10.4
	h13.7c0.6,0,1,0.4,1,1s-0.4,1-1,1H9c-0.6,0-1-0.4-1-1S8.4,10.4,9,10.4z M9,22.2h6.7c0.6,0,1,0.4,1,1s-0.4,1-1,1H9c-0.6,0-1-0.4-1-1
	S8.4,22.2,9,22.2z M8,19.3c0-0.6,0.4-1,1-1h6.7c0.6,0,1,0.4,1,1s-0.4,1-1,1H9C8.4,20.3,8,19.9,8,19.3z M17.7,28.2H9
	c-0.6,0-1-0.4-1-1s0.4-1,1-1h8.7c0.6,0,1,0.4,1,1S18.2,28.2,17.7,28.2z M17.7,16.4H9c-0.6,0-1-0.4-1-1s0.4-1,1-1h8.7
	c0.6,0,1,0.4,1,1S18.2,16.4,17.7,16.4z"/>
</svg>
