<?xml version="1.0" encoding="utf-8"?>
<!-- Generator: Adobe Illustrator 22.0.0, SVG Export Plug-In . SVG Version: 6.00 Build 0)  -->
<svg version="1.1" id="Layer_1" xmlns="http://www.w3.org/2000/svg" xmlns:xlink="http://www.w3.org/1999/xlink" x="0px" y="0px"
	 viewBox="0 0 36 36" style="enable-background:new 0 0 36 36;" xml:space="preserve">
<style type="text/css">
	.st0{fill:#00BEBE;}
	.st1{fill:#AFAA04;}
	.st2{fill:#DBDB00;}
	.st3{fill:#E5E5E5;}
	.st4{fill:#FFFFFF;}
	.st5{fill:none;stroke:#FFFFFF;stroke-width:2;stroke-miterlimit:10;}
	.st6{fill:none;stroke:#00BEBE;stroke-width:2;stroke-linecap:round;stroke-linejoin:round;stroke-miterlimit:10;}
	.st7{fill:#C5C3C3;}
	.st8{fill:#ECECEC;}
	.st9{fill:#F3EE5C;}
	.st10{fill:#003B39;}
	.st11{fill:#C2EAE8;}
	.st12{fill:#C4C4C4;}
	.st13{fill:#595959;}
	.st14{fill:none;stroke:#003B39;stroke-miterlimit:10;}
	.st15{fill:none;stroke:#FFFFFF;stroke-miterlimit:10;}
	.st16{fill:#F3360A;}
	.st17{opacity:0.31;clip-path:url(#SVGID_2_);}
	.st18{fill:#A5A5A5;}
	.st19{fill:#B21F0B;}
	.st20{fill:#CE2C0D;}
	.st21{fill:#A09C07;}
	.st22{fill:#F2C5B0;}
	.st23{fill:#D6A896;}
	.st24{fill:#C1978A;}
	.st25{fill:#F4D1C3;}
</style>
<path class="st0" d="M31.6,24.1H4.4c-0.5,0-1,0.4-1,1v5.1c0,0.5,0.4,1,1,1h27.3c0.5,0,1-0.4,1-1v-5.1C32.6,24.6,32.2,24.1,31.6,24.1
	z M5.9,28.8c-0.6,0-1.1-0.5-1.1-1.1c0-0.6,0.5-1.1,1.1-1.1c0.6,0,1.1,0.5,1.1,1.1C7,28.3,6.5,28.8,5.9,28.8z M30,28.8
	c-0.6,0-1.1-0.5-1.1-1.1c0-0.6,0.5-1.1,1.1-1.1c0.6,0,1.1,0.5,1.1,1.1C31.1,28.3,30.6,28.8,30,28.8z"/>
<g>
	<path class="st4" d="M8.5,25.7V29c0,0.1,0.1,0.2,0.2,0.2C8.9,29.1,9,29,9,29v-3.2c0-0.1-0.1-0.2-0.2-0.2
		C8.7,25.6,8.5,25.7,8.5,25.7"/>
	<path class="st4" d="M26.7,25.7V29c0,0.1,0.1,0.2,0.2,0.2c0.1,0,0.2-0.1,0.2-0.2v-3.2c0-0.1-0.1-0.2-0.2-0.2
		C26.8,25.6,26.7,25.7,26.7,25.7"/>
	<path class="st4" d="M17.6,25.7V29c0,0.1,0.1,0.2,0.2,0.2c0.1,0,0.2-0.1,0.2-0.2v-3.2c0-0.1-0.1-0.2-0.2-0.2
		C17.7,25.6,17.6,25.7,17.6,25.7"/>
	<path class="st4" d="M11.6,25.7v1.6c0,0.1,0.1,0.2,0.2,0.2c0.1,0,0.2-0.1,0.2-0.2v-1.6c0-0.1-0.1-0.2-0.2-0.2
		C11.7,25.6,11.6,25.7,11.6,25.7"/>
	<path class="st4" d="M14.6,25.7v1.6c0,0.1,0.1,0.2,0.2,0.2c0.1,0,0.2-0.1,0.2-0.2v-1.6c0-0.1-0.1-0.2-0.2-0.2
		C14.7,25.6,14.6,25.7,14.6,25.7"/>
	<path class="st4" d="M20.7,25.7v1.6c0,0.1,0.1,0.2,0.2,0.2c0.1,0,0.2-0.1,0.2-0.2v-1.6c0-0.1-0.1-0.2-0.2-0.2
		C20.8,25.6,20.7,25.7,20.7,25.7"/>
	<path class="st4" d="M23.7,25.7v1.6c0,0.1,0.1,0.2,0.2,0.2c0.1,0,0.2-0.1,0.2-0.2v-1.6c0-0.1-0.1-0.2-0.2-0.2
		C23.8,25.6,23.7,25.7,23.7,25.7"/>
</g>
<g>
	<path class="st0" d="M27.3,8.2l0.9-0.9c0.6-0.6,0.6-1.5,0-2.1l-1.8-1.8c-0.6-0.6-1.5-0.6-2.1,0l-0.9,0.9c-0.4,0.4-0.4,1,0,1.3
		l2.5,2.5C26.3,8.5,26.9,8.5,27.3,8.2z"/>
	<path class="st0" d="M20.1,7.6l-11,11c-0.2,0.2-0.3,0.5-0.4,0.8l-0.5,2.2c-0.2,1.1,0.7,2,1.8,1.8l2.2-0.5c0.3-0.1,0.5-0.2,0.8-0.4
		l11-11c0.4-0.4,0.4-1,0-1.3l-2.5-2.5C21.1,7.2,20.5,7.2,20.1,7.6z"/>
</g>
</svg>
