<?xml version="1.0" encoding="utf-8"?>
<!-- Generator: Adobe Illustrator 22.0.0, SVG Export Plug-In . SVG Version: 6.00 Build 0)  -->
<svg version="1.1" id="Layer_1" xmlns="http://www.w3.org/2000/svg" xmlns:xlink="http://www.w3.org/1999/xlink" x="0px" y="0px"
	 viewBox="0 0 70 70" style="enable-background:new 0 0 70 70;" xml:space="preserve">
<style type="text/css">
	.st0{fill:#00BEBE;}
	.st1{fill:#AFAA04;}
	.st2{fill:#DBDB00;}
	.st3{fill:#E5E5E5;}
	.st4{fill:#FFFFFF;}
	.st5{fill:none;stroke:#FFFFFF;stroke-width:2;stroke-miterlimit:10;}
	.st6{fill:none;stroke:#00BEBE;stroke-width:2;stroke-linecap:round;stroke-linejoin:round;stroke-miterlimit:10;}
	.st7{fill:#C5C3C3;}
	.st8{fill:#ECECEC;}
	.st9{fill:#F3EE5C;}
	.st10{fill:#003B39;}
	.st11{fill:#C2EAE8;}
	.st12{fill:#C4C4C4;}
	.st13{fill:#595959;}
	.st14{fill:none;stroke:#003B39;stroke-miterlimit:10;}
	.st15{fill:none;stroke:#FFFFFF;stroke-miterlimit:10;}
	.st16{fill:#F3360A;}
	.st17{opacity:0.31;clip-path:url(#SVGID_2_);}
	.st18{fill:#A5A5A5;}
	.st19{fill:#B21F0B;}
	.st20{fill:#CE2C0D;}
	.st21{fill:#A09C07;}
	.st22{fill:#F2C5B0;}
	.st23{fill:#D6A896;}
	.st24{fill:#C1978A;}
	.st25{fill:#F4D1C3;}
</style>
<path class="st0" d="M38.7,45.7V24.4c0-2-1.6-3.7-3.7-3.7s-3.7,1.6-3.7,3.7v21.3c-2.7,1.3-4.5,4.1-4.5,7.3c0,4.5,3.7,8.2,8.2,8.2
	s8.2-3.7,8.2-8.2C43.2,49.8,41.3,47.1,38.7,45.7z"/>
<g>
	<path class="st0" d="M46.8,9h6.7C53.8,9,54,9.2,54,9.4c0,0.2-0.2,0.4-0.5,0.4h-6.7c-0.3,0-0.5-0.2-0.5-0.4C46.3,9.2,46.6,9,46.8,9"
		/>
	<path class="st0" d="M46.8,39h6.7c0.3,0,0.5,0.2,0.5,0.4c0,0.2-0.2,0.4-0.5,0.4h-6.7c-0.3,0-0.5-0.2-0.5-0.4
		C46.3,39.2,46.6,39,46.8,39"/>
	<path class="st0" d="M46.8,24h6.7c0.3,0,0.5,0.2,0.5,0.4c0,0.2-0.2,0.4-0.5,0.4h-6.7c-0.3,0-0.5-0.2-0.5-0.4
		C46.3,24.2,46.6,24,46.8,24"/>
	<path class="st0" d="M46.8,14h3.3c0.3,0,0.5,0.2,0.5,0.4c0,0.2-0.2,0.4-0.5,0.4h-3.3c-0.3,0-0.5-0.2-0.5-0.4
		C46.3,14.2,46.6,14,46.8,14"/>
	<path class="st0" d="M46.8,19h3.3c0.3,0,0.5,0.2,0.5,0.4c0,0.2-0.2,0.4-0.5,0.4h-3.3c-0.3,0-0.5-0.2-0.5-0.4
		C46.3,19.2,46.6,19,46.8,19"/>
	<path class="st0" d="M46.8,29h3.3c0.3,0,0.5,0.2,0.5,0.4c0,0.2-0.2,0.4-0.5,0.4h-3.3c-0.3,0-0.5-0.2-0.5-0.4
		C46.3,29.2,46.6,29,46.8,29"/>
	<path class="st0" d="M46.8,34h3.3c0.3,0,0.5,0.2,0.5,0.4c0,0.2-0.2,0.4-0.5,0.4h-3.3c-0.3,0-0.5-0.2-0.5-0.4
		C46.3,34.2,46.6,34,46.8,34"/>
</g>
<path class="st0" d="M46.6,45.7c-0.7-1.1-1.5-2-2.4-2.9V13.4c0-2.4-1-4.8-2.7-6.5c-1.7-1.7-4.1-2.7-6.5-2.7h0c-2.4,0-4.8,1-6.5,2.7
	c-1.7,1.7-2.7,4.1-2.7,6.5v29.5c-0.9,0.8-1.8,1.8-2.4,2.9c-1.4,2.2-2.1,4.7-2.1,7.3c0,7.5,6.1,13.7,13.7,13.7
	c7.5,0,13.7-6.1,13.7-13.7C48.7,50.5,48,47.9,46.6,45.7z M35,63.7c-5.9,0-10.7-4.8-10.7-10.7c0-2.1,0.6-4.1,1.6-5.7
	c0.8-1.2,1.7-2.2,2.9-3V13.4c0-1.7,0.7-3.2,1.8-4.3C31.8,8,33.3,7.3,35,7.3h0c1.7,0,3.2,0.7,4.3,1.8c1.1,1.1,1.8,2.7,1.8,4.3v30.9
	c1.1,0.8,2.1,1.8,2.9,3c1,1.6,1.6,3.6,1.6,5.7C45.7,59,40.9,63.7,35,63.7z"/>
</svg>
