<?xml version="1.0" encoding="utf-8"?>
<!-- Generator: Adobe Illustrator 22.0.0, SVG Export Plug-In . SVG Version: 6.00 Build 0)  -->
<svg version="1.1" id="Layer_1" xmlns="http://www.w3.org/2000/svg" xmlns:xlink="http://www.w3.org/1999/xlink" x="0px" y="0px"
	 viewBox="0 0 70 70" style="enable-background:new 0 0 70 70;" xml:space="preserve">
<style type="text/css">
	.st0{fill:#00BEBE;}
	.st1{fill:#AFAA04;}
	.st2{fill:#DBDB00;}
	.st3{fill:#E5E5E5;}
	.st4{fill:#FFFFFF;}
	.st5{fill:none;stroke:#FFFFFF;stroke-width:2;stroke-miterlimit:10;}
	.st6{fill:none;stroke:#00BEBE;stroke-width:2;stroke-linecap:round;stroke-linejoin:round;stroke-miterlimit:10;}
	.st7{fill:#C5C3C3;}
	.st8{fill:#ECECEC;}
	.st9{fill:#F3EE5C;}
	.st10{fill:#003B39;}
	.st11{fill:#C2EAE8;}
	.st12{fill:#C4C4C4;}
	.st13{fill:#595959;}
	.st14{fill:none;stroke:#003B39;stroke-miterlimit:10;}
	.st15{fill:none;stroke:#FFFFFF;stroke-miterlimit:10;}
	.st16{fill:#F3360A;}
	.st17{opacity:0.31;clip-path:url(#SVGID_2_);}
	.st18{fill:#A5A5A5;}
	.st19{fill:#B21F0B;}
	.st20{fill:#CE2C0D;}
	.st21{fill:#A09C07;}
	.st22{fill:#F2C5B0;}
	.st23{fill:#D6A896;}
	.st24{fill:#C1978A;}
	.st25{fill:#F4D1C3;}
</style>
<path class="st0" d="M62.8,45.1H7.2c-1.1,0-2,0.9-2,2v10.3c0,1.1,0.9,2,2,2h55.5c1.1,0,2-0.9,2-2V47.1C64.8,46,63.8,45.1,62.8,45.1z
	 M10.3,54.7c-1.3,0-2.3-1-2.3-2.3c0-1.3,1-2.3,2.3-2.3c1.3,0,2.3,1,2.3,2.3C12.6,53.6,11.6,54.7,10.3,54.7z M59.4,54.7
	c-1.3,0-2.3-1-2.3-2.3c0-1.3,1-2.3,2.3-2.3c1.3,0,2.3,1,2.3,2.3C61.7,53.6,60.7,54.7,59.4,54.7z"/>
<rect x="5.2" y="10" class="st0" width="59.5" height="32.1"/>
<g>
	<path class="st4" d="M15.8,46.1v10.7c0,0.3,0.2,0.5,0.5,0.5c0.3,0,0.5-0.2,0.5-0.5V46.1c0-0.3-0.2-0.5-0.5-0.5
		C16,45.6,15.8,45.8,15.8,46.1"/>
	<path class="st4" d="M52.8,46.1v10.7c0,0.3,0.2,0.5,0.5,0.5c0.3,0,0.5-0.2,0.5-0.5V46.1c0-0.3-0.2-0.5-0.5-0.5
		C53,45.6,52.8,45.8,52.8,46.1"/>
	<path class="st4" d="M34.2,46.1v10.7c0,0.3,0.2,0.5,0.5,0.5c0.3,0,0.5-0.2,0.5-0.5V46.1c0-0.3-0.2-0.5-0.5-0.5
		C34.5,45.6,34.2,45.8,34.2,46.1"/>
	<path class="st4" d="M21.9,46.1v5.3c0,0.3,0.2,0.5,0.5,0.5c0.3,0,0.5-0.2,0.5-0.5v-5.3c0-0.3-0.2-0.5-0.5-0.5
		C22.1,45.6,21.9,45.8,21.9,46.1"/>
	<path class="st4" d="M28.1,46.1v5.3c0,0.3,0.2,0.5,0.5,0.5c0.3,0,0.5-0.2,0.5-0.5v-5.3c0-0.3-0.2-0.5-0.5-0.5
		C28.3,45.6,28.1,45.8,28.1,46.1"/>
	<path class="st4" d="M40.4,46.1v5.3c0,0.3,0.2,0.5,0.5,0.5c0.3,0,0.5-0.2,0.5-0.5v-5.3c0-0.3-0.2-0.5-0.5-0.5
		C40.6,45.6,40.4,45.8,40.4,46.1"/>
	<path class="st4" d="M46.6,46.1v5.3c0,0.3,0.2,0.5,0.5,0.5c0.3,0,0.5-0.2,0.5-0.5v-5.3c0-0.3-0.2-0.5-0.5-0.5
		C46.8,45.6,46.6,45.8,46.6,46.1"/>
</g>
</svg>
