<?xml version="1.0" encoding="utf-8"?>
<!-- Generator: Adobe Illustrator 22.0.0, SVG Export Plug-In . SVG Version: 6.00 Build 0)  -->
<svg version="1.1" id="Layer_1" xmlns="http://www.w3.org/2000/svg" xmlns:xlink="http://www.w3.org/1999/xlink" x="0px" y="0px"
	 viewBox="0 0 70 70" style="enable-background:new 0 0 70 70;" xml:space="preserve">
<style type="text/css">
	.st0{fill:#00BEBE;}
	.st1{fill:#AFAA04;}
	.st2{fill:#DBDB00;}
	.st3{fill:#E5E5E5;}
	.st4{fill:#FFFFFF;}
	.st5{fill:none;stroke:#FFFFFF;stroke-width:2;stroke-miterlimit:10;}
	.st6{fill:none;stroke:#00BEBE;stroke-width:2;stroke-linecap:round;stroke-linejoin:round;stroke-miterlimit:10;}
	.st7{fill:#C5C3C3;}
	.st8{fill:#ECECEC;}
	.st9{fill:#F3EE5C;}
	.st10{fill:#003B39;}
	.st11{fill:#C2EAE8;}
	.st12{fill:#C4C4C4;}
	.st13{fill:#595959;}
	.st14{fill:none;stroke:#003B39;stroke-miterlimit:10;}
	.st15{fill:none;stroke:#FFFFFF;stroke-miterlimit:10;}
	.st16{fill:#F3360A;}
	.st17{opacity:0.31;clip-path:url(#SVGID_2_);}
	.st18{fill:#A5A5A5;}
	.st19{fill:#B21F0B;}
	.st20{fill:#CE2C0D;}
	.st21{fill:#A09C07;}
	.st22{fill:#F2C5B0;}
	.st23{fill:#D6A896;}
	.st24{fill:#C1978A;}
	.st25{fill:#F4D1C3;}
</style>
<g>
	<path class="st0" d="M38.8,33.8l-0.6-0.6c-0.3-0.3-0.7-0.7-0.7-0.7c0.3-0.3,0.4-1.1,0-1.5s-1-0.5-1.4-0.2l-0.8,0.8l-14-14l-1.4-2.1
		l-5.4-4l-1.1,1.1l4,5.4l2.1,1.4l14,14l-0.8,0.8c-0.3,0.3-0.3,0.9,0.2,1.4c0.4,0.4,1.2,0.4,1.5,0c0,0,0.5,0.5,0.7,0.7l0.6,0.6
		l6.3,10.5l13.8,12.8c0.3,0.3,0.8,0.4,1.1,0.1l5.5-5.5c0.3-0.3,0.2-0.8-0.1-1.1L49.3,40.1L38.8,33.8z"/>
</g>
<g>
	<path class="st0" d="M61.7,17.8L52,8.1c-0.1-0.1-0.3-0.1-0.5,0L32.3,27.3l2.8,2.8l0.1-0.1c0.3-0.3,0.8-0.5,1.2-0.5
		c0.6,0,1.1,0.2,1.6,0.7c0.6,0.6,0.7,1.3,0.5,2l0.2,0.2l0.5,0.5l4.7,2.8l17.6-17.6C61.8,18.2,61.8,17.9,61.7,17.8z M44,34.5
		l-3.8-3.8l1.4-1.4l3.8,3.8L44,34.5z M48.4,30.2l-3.8-3.8L46,25l3.8,3.8L48.4,30.2z M52.7,25.8l-7.5-7.5l1.4-1.4l7.5,7.5L52.7,25.8z
		 M54.8,18.1c-0.9,0.9-2.3,0.9-3.2,0c-0.9-0.9-0.9-2.3,0-3.2c0.9-0.9,2.3-0.9,3.2,0C55.7,15.7,55.7,17.2,54.8,18.1z"/>
	<path class="st0" d="M34.8,37.6l-0.5-0.5L34,36.8c-0.2,0-0.3,0.1-0.5,0.1c-0.6,0-1.1-0.2-1.5-0.6c-0.8-0.8-0.9-2.1-0.2-2.8l0.1-0.1
		l-2.8-2.8L9.9,49.7c-0.1,0.1-0.1,0.3,0,0.5l9.7,9.7c0.1,0.1,0.3,0.1,0.5,0l17.6-17.6L34.8,37.6z M20.1,52.8c-0.9,0.9-2.3,0.9-3.2,0
		c-0.9-0.9-0.9-2.3,0-3.2c0.9-0.9,2.3-0.9,3.2,0C21,50.5,21,51.9,20.1,52.8z M26.6,52L19,44.4l1.4-1.4l7.5,7.5L26.6,52z M30.9,47.6
		l-3.8-3.8l1.4-1.4l3.8,3.8L30.9,47.6z M31.5,39.5l1.4-1.4l3.8,3.8l-1.4,1.4L31.5,39.5z"/>
</g>
</svg>
