<?xml version="1.0" encoding="utf-8"?>
<!-- Generator: Adobe Illustrator 22.0.0, SVG Export Plug-In . SVG Version: 6.00 Build 0)  -->
<svg version="1.1" id="Layer_1" xmlns="http://www.w3.org/2000/svg" xmlns:xlink="http://www.w3.org/1999/xlink" x="0px" y="0px"
	 viewBox="0 0 36 36" style="enable-background:new 0 0 36 36;" xml:space="preserve">
<style type="text/css">
	.st0{fill:#00BEBE;}
	.st1{fill:#AFAA04;}
	.st2{fill:#DBDB00;}
	.st3{fill:#E5E5E5;}
	.st4{fill:#FFFFFF;}
	.st5{fill:none;stroke:#FFFFFF;stroke-width:2;stroke-miterlimit:10;}
	.st6{fill:none;stroke:#00BEBE;stroke-width:2;stroke-linecap:round;stroke-linejoin:round;stroke-miterlimit:10;}
	.st7{fill:#C5C3C3;}
	.st8{fill:#ECECEC;}
	.st9{fill:#F3EE5C;}
	.st10{fill:#003B39;}
	.st11{fill:#C2EAE8;}
	.st12{fill:#C4C4C4;}
	.st13{fill:#595959;}
	.st14{fill:none;stroke:#003B39;stroke-miterlimit:10;}
	.st15{fill:none;stroke:#FFFFFF;stroke-miterlimit:10;}
	.st16{fill:#F3360A;}
	.st17{opacity:0.31;clip-path:url(#SVGID_2_);}
	.st18{fill:#A5A5A5;}
	.st19{fill:#B21F0B;}
	.st20{fill:#CE2C0D;}
	.st21{fill:#A09C07;}
	.st22{fill:#F2C5B0;}
	.st23{fill:#D6A896;}
	.st24{fill:#C1978A;}
	.st25{fill:#F4D1C3;}
</style>
<path class="st0" d="M25.5,3.5H10.5c-1.7,0-3,1.4-3,3v23.1c0,1.6,1.3,3,3,3h15.1c1.7,0,3-1.4,3-3V6.5C28.5,4.8,27.2,3.5,25.5,3.5z
	 M15.5,25.5l-2.4,3.9c-0.2,0.3-0.5,0.5-0.8,0.5s-0.6-0.1-0.8-0.4L10,27.6h0c-0.3-0.4-0.3-1.1,0.2-1.4c0.4-0.3,1.1-0.3,1.4,0.2
	l0.6,0.7l1.7-2.7c0.3-0.5,0.9-0.6,1.4-0.3C15.6,24.4,15.8,25,15.5,25.5z M15.5,16.6l-2.4,3.9c-0.2,0.3-0.5,0.5-0.8,0.5
	s-0.6-0.1-0.8-0.4L10,18.7h0c-0.3-0.4-0.3-1.1,0.2-1.4c0.4-0.3,1.1-0.3,1.4,0.2l0.6,0.7l1.7-2.7c0.3-0.5,0.9-0.6,1.4-0.3
	C15.6,15.5,15.8,16.1,15.5,16.6z M15.5,7.7l-2.4,3.9c-0.2,0.3-0.5,0.5-0.8,0.5s-0.6-0.1-0.8-0.4L10,9.7h0c-0.3-0.4-0.3-1.1,0.2-1.4
	s1.1-0.3,1.4,0.2l0.6,0.7l1.7-2.7c0.3-0.5,0.9-0.6,1.4-0.3C15.6,6.6,15.8,7.2,15.5,7.7z M25.2,28.2H17c-0.6,0-1-0.4-1-1s0.4-1,1-1
	h8.2c0.6,0,1,0.4,1,1S25.8,28.2,25.2,28.2z M25.2,19.2H17c-0.6,0-1-0.4-1-1s0.4-1,1-1h8.2c0.6,0,1,0.4,1,1S25.8,19.2,25.2,19.2z
	 M25.2,10.3H17c-0.6,0-1-0.4-1-1s0.4-1,1-1h8.2c0.6,0,1,0.4,1,1S25.8,10.3,25.2,10.3z"/>
</svg>
