<?xml version="1.0" encoding="utf-8"?>
<!-- Generator: Adobe Illustrator 22.0.0, SVG Export Plug-In . SVG Version: 6.00 Build 0)  -->
<svg version="1.1" id="Layer_1" xmlns="http://www.w3.org/2000/svg" xmlns:xlink="http://www.w3.org/1999/xlink" x="0px" y="0px"
	 viewBox="0 0 70 70" style="enable-background:new 0 0 70 70;" xml:space="preserve">
<style type="text/css">
	.st0{fill:#00BEBE;}
	.st1{fill:#AFAA04;}
	.st2{fill:#DBDB00;}
	.st3{fill:#E5E5E5;}
	.st4{fill:#FFFFFF;}
	.st5{fill:none;stroke:#FFFFFF;stroke-width:2;stroke-miterlimit:10;}
	.st6{fill:none;stroke:#00BEBE;stroke-width:2;stroke-linecap:round;stroke-linejoin:round;stroke-miterlimit:10;}
	.st7{fill:#C5C3C3;}
	.st8{fill:#ECECEC;}
	.st9{fill:#F3EE5C;}
	.st10{fill:#003B39;}
	.st11{fill:#C2EAE8;}
	.st12{fill:#C4C4C4;}
	.st13{fill:#595959;}
	.st14{fill:none;stroke:#003B39;stroke-miterlimit:10;}
	.st15{fill:none;stroke:#FFFFFF;stroke-miterlimit:10;}
	.st16{fill:#F3360A;}
	.st17{opacity:0.31;clip-path:url(#SVGID_2_);}
	.st18{fill:#A5A5A5;}
	.st19{fill:#B21F0B;}
	.st20{fill:#CE2C0D;}
	.st21{fill:#A09C07;}
	.st22{fill:#F2C5B0;}
	.st23{fill:#D6A896;}
	.st24{fill:#C1978A;}
	.st25{fill:#F4D1C3;}
</style>
<path class="st0" d="M64.5,63.4H6.2l-0.6-1.3c-0.8-1.7-0.5-3.7,0.7-5.1l0,0c1.2-1.3,1.5-3.2,0.8-4.8l-0.9-2.2h58.2l0.9,2.2
	c0.7,1.6,0.3,3.5-0.8,4.8l0,0c-1.2,1.4-1.5,3.4-0.7,5.1L64.5,63.4z"/>
<path class="st0" d="M63.6,46H7.1c-0.5,0-0.9-0.4-0.9-0.9l0,0c0-0.5,0.4-0.9,0.9-0.9h56.5c0.5,0,0.9,0.4,0.9,0.9l0,0
	C64.5,45.6,64.1,46,63.6,46z"/>
<path class="st0" d="M60.6,3.2L61.1,4c0.6,0.9,0.4,2.2-0.5,2.8L31.1,27.3c-0.9,0.6-2.2,0.4-2.8-0.5l-0.5-0.7
	c-0.6-0.9-0.4-2.2,0.5-2.8L57.8,2.7C58.7,2.1,60,2.3,60.6,3.2z"/>
<g>
	<line class="st6" x1="40.6" y1="38.4" x2="52.7" y2="27"/>
	<line class="st6" x1="46.7" y1="39.5" x2="54.9" y2="36.8"/>
</g>
<g>
	<line class="st6" x1="31" y1="38.4" x2="18.9" y2="27"/>
	<line class="st6" x1="24.9" y1="39.5" x2="16.7" y2="36.8"/>
</g>
<path class="st0" d="M34.3,25.7c1.8,1.2,3.4,2.6,4.9,4.1l1.2,1.3c0.4,0.6,0.3,1.5-0.3,1.9l-4.5,3.1c-0.6,0.4-1.5,0.3-1.9-0.3
	l-0.3-0.6c-1.1-2.3-2.6-4.3-4.3-6.2c-3.7-4-9.9-12-7.5-16.7l1.4,3.1c1.2,2.6,3.1,4.9,5.5,6.4L34.3,25.7z"/>
</svg>
