<?xml version="1.0" encoding="utf-8"?>
<!-- Generator: Adobe Illustrator 22.0.0, SVG Export Plug-In . SVG Version: 6.00 Build 0)  -->
<svg version="1.1" id="Layer_1" xmlns="http://www.w3.org/2000/svg" xmlns:xlink="http://www.w3.org/1999/xlink" x="0px" y="0px"
	 viewBox="0 0 70 70" style="enable-background:new 0 0 70 70;" xml:space="preserve">
<style type="text/css">
	.st0{fill:#00BEBE;}
	.st1{fill:#AFAA04;}
	.st2{fill:#DBDB00;}
	.st3{fill:#E5E5E5;}
	.st4{fill:#FFFFFF;}
	.st5{fill:none;stroke:#FFFFFF;stroke-width:2;stroke-miterlimit:10;}
	.st6{fill:none;stroke:#00BEBE;stroke-width:2;stroke-linecap:round;stroke-linejoin:round;stroke-miterlimit:10;}
	.st7{fill:#C5C3C3;}
	.st8{fill:#ECECEC;}
	.st9{fill:#F3EE5C;}
	.st10{fill:#003B39;}
	.st11{fill:#C2EAE8;}
	.st12{fill:#C4C4C4;}
	.st13{fill:#595959;}
	.st14{fill:none;stroke:#003B39;stroke-miterlimit:10;}
	.st15{fill:none;stroke:#FFFFFF;stroke-miterlimit:10;}
	.st16{fill:#F3360A;}
	.st17{opacity:0.31;clip-path:url(#SVGID_2_);}
	.st18{fill:#A5A5A5;}
	.st19{fill:#B21F0B;}
	.st20{fill:#CE2C0D;}
	.st21{fill:#A09C07;}
	.st22{fill:#F2C5B0;}
	.st23{fill:#D6A896;}
	.st24{fill:#C1978A;}
	.st25{fill:#F4D1C3;}
</style>
<path class="st0" d="M32.7,38.1h-1.9c-0.3-1.8-1-3-1.8-4.3l1.4-1.4c0.2-0.2,0.2-0.6,0-0.9l-3.3-3.3c-0.2-0.2-0.6-0.2-0.9,0l-1.4,1.4
	c-1.3-0.8-2.5-1.4-4.3-1.8v-1.9c0-0.3-0.1-0.5-0.5-0.5h-4.6c-0.3,0-0.7,0.2-0.7,0.5v2c-1.5,0.3-2.9,1-4.2,1.8l-1.4-1.4
	c-0.2-0.2-0.6-0.2-0.8,0L5,31.5c-0.2,0.2-0.2,0.6,0,0.9l1.4,1.5c-0.8,1.3-1.4,2.8-1.7,4.3h-2c-0.3,0-0.7,0.1-0.7,0.5v4.6
	c0,0.3,0.4,0.7,0.7,0.7h2c0.3,1.5,0.9,2.9,1.7,4.2L5,49.5c-0.2,0.2-0.2,0.6,0,0.9l3.3,3.3c0.2,0.2,0.6,0.2,0.9,0l1.4-1.4
	c1.3,0.8,2.7,1.4,4.2,1.8v2c0,0.3,0.3,0.7,0.7,0.7H20c0.3,0,0.5-0.4,0.5-0.7V54c1.8-0.3,3-0.9,4.3-1.8l1.4,1.4
	c0.2,0.2,0.6,0.2,0.9,0l3.3-3.3c0.2-0.2,0.2-0.6,0-0.9L29,48.1c0.8-1.3,1.4-2.7,1.8-4.3h1.9c0.3,0,0.5-0.3,0.5-0.7v-4.6
	C33.2,38.3,33,38.1,32.7,38.1z M17.7,49.2c-4.7,0-8.4-3.7-8.4-8.2c0-4.5,3.8-8.2,8.4-8.2s8.4,3.7,8.4,8.2
	C26.2,45.5,22.4,49.2,17.7,49.2z"/>
<path class="st0" d="M63.7,48.8H62c-0.3-1.8-0.9-2.8-1.6-3.9l1.2-1.3c0.2-0.2,0.2-0.6,0-0.8l-2.9-3c-0.2-0.2-0.6-0.2-0.8,0l-1.4,1.2
	c-1.2-0.7-1.9-1.3-4-1.6v-1.7c0-0.3,0.1-0.5-0.2-0.5h-4.2c-0.3,0-0.5,0.2-0.5,0.5v1.8c-1.5,0.3-2.7,0.9-3.8,1.6l-1.3-1.3
	c-0.2-0.2-0.6-0.2-0.8,0l-2.9,2.9c-0.2,0.2-0.2,0.6,0,0.8l1.3,1.4c-0.7,1.1-1.3,2.4-1.6,3.9h-1.8c-0.3,0-0.6,0.1-0.6,0.4v4.2
	c0,0.3,0.3,0.3,0.6,0.3h1.8c0.3,1.5,0.8,2.8,1.6,3.9l-1.3,1.3c-0.2,0.2-0.2,0.6,0,0.8l2.9,3c0.2,0.2,0.6,0.2,0.8,0l1.3-1.3
	c1.2,0.7,2.3,1.3,3.8,1.6v1.8c0,0.3,0.2,0.7,0.5,0.7h4.2c0.3,0,0.2-0.4,0.2-0.7V63c2.1-0.3,2.9-0.8,4-1.6l1.3,1.2
	c0.2,0.2,0.6,0.2,0.8,0l3-2.9c0.2-0.2,0.2-0.6,0-0.8l-1.2-1.3c0.7-1.2,1.3-2.4,1.6-4h1.7c0.3,0,0.6,0,0.6-0.3v-4.2
	C64.2,48.9,64,48.8,63.7,48.8z M50.2,58.6c-4.2,0-7.6-3.3-7.6-7.4c0-4.1,3.4-7.4,7.6-7.4s7.6,3.3,7.6,7.4
	C57.8,55.3,54.4,58.6,50.2,58.6z"/>
<path class="st0" d="M60.4,18.3l-0.8-4.6c-0.1-0.3-0.3-0.4-0.6-0.4l-1.9,0.3c-0.7-1.7-1.5-2.8-2.5-4l1.1-1.6
	c0.2-0.3,0.1-0.7-0.2-0.9l-3.8-2.7c-0.3-0.2-0.7-0.1-0.8,0.1l-1.2,1.6c-1.4-0.6-2.7-1-4.6-1l-0.3-1.9c-0.1-0.3-0.2-0.5-0.5-0.4
	l-4.6,0.8c-0.3,0.1-0.6,0.3-0.6,0.6l0.3,1.9c-1.4,0.6-2.7,1.4-3.8,2.5l-1.6-1.1c-0.3-0.2-0.6-0.1-0.8,0.1l-2.7,3.8
	c-0.2,0.3-0.1,0.7,0.1,0.8l1.6,1.2c-0.6,1.4-0.9,3-1,4.5l-2,0.3c-0.3,0.1-0.7,0.3-0.6,0.6l0.8,4.6c0.1,0.3,0.5,0.6,0.8,0.5l2-0.3
	c0.6,1.4,1.4,2.7,2.4,3.8l-1.1,1.6c-0.2,0.3-0.1,0.6,0.1,0.8l3.8,2.7c0.3,0.2,0.7,0.1,0.8-0.1l1.1-1.6c1.4,0.6,2.9,0.9,4.4,1
	l0.3,1.9c0.1,0.3,0.5,0.6,0.8,0.6l4.6-0.8c0.3-0.1,0.4-0.4,0.3-0.8l-0.3-1.9c1.7-0.6,2.8-1.4,4-2.5l1.6,1.1c0.3,0.2,0.7,0.1,0.9-0.2
	l2.7-3.8c0.2-0.3,0.1-0.7-0.1-0.8l-1.6-1.1c0.6-1.4,0.9-2.9,1-4.5L60,19C60.3,19,60.4,18.6,60.4,18.3z M46.2,26.7
	c-4.6,0.8-8.9-2.2-9.7-6.6c-0.8-4.4,2.3-8.7,6.9-9.5c4.6-0.8,8.9,2.2,9.7,6.6C53.8,21.7,50.7,25.9,46.2,26.7z"/>
<circle class="st0" cx="17.6" cy="41" r="5"/>
<circle class="st0" cx="44.6" cy="18.8" r="5"/>
<circle class="st0" cx="50.1" cy="51.4" r="5"/>
</svg>
