<?xml version="1.0" encoding="utf-8"?>
<!-- Generator: Adobe Illustrator 22.0.0, SVG Export Plug-In . SVG Version: 6.00 Build 0)  -->
<svg version="1.1" id="Layer_1" xmlns="http://www.w3.org/2000/svg" xmlns:xlink="http://www.w3.org/1999/xlink" x="0px" y="0px"
	 viewBox="0 0 70 70" style="enable-background:new 0 0 70 70;" xml:space="preserve">
<style type="text/css">
	.st0{fill:#00BEBE;}
	.st1{fill:#AFAA04;}
	.st2{fill:#DBDB00;}
	.st3{fill:#E5E5E5;}
	.st4{fill:#FFFFFF;}
	.st5{fill:none;stroke:#FFFFFF;stroke-width:2;stroke-miterlimit:10;}
	.st6{fill:none;stroke:#00BEBE;stroke-width:2;stroke-linecap:round;stroke-linejoin:round;stroke-miterlimit:10;}
	.st7{fill:#C5C3C3;}
	.st8{fill:#ECECEC;}
	.st9{fill:#F3EE5C;}
	.st10{fill:#003B39;}
	.st11{fill:#C2EAE8;}
	.st12{fill:#C4C4C4;}
	.st13{fill:#595959;}
	.st14{fill:none;stroke:#003B39;stroke-miterlimit:10;}
	.st15{fill:none;stroke:#FFFFFF;stroke-miterlimit:10;}
	.st16{fill:#F3360A;}
	.st17{opacity:0.31;clip-path:url(#SVGID_2_);}
	.st18{fill:#A5A5A5;}
	.st19{fill:#B21F0B;}
	.st20{fill:#CE2C0D;}
	.st21{fill:#A09C07;}
	.st22{fill:#F2C5B0;}
	.st23{fill:#D6A896;}
	.st24{fill:#C1978A;}
	.st25{fill:#F4D1C3;}
</style>
<g>
	<path class="st0" d="M46.8,43.6c0,1.3-1.1,2.4-2.4,2.4c-1.3,0-2.4-1.1-2.4-2.4c0-1.3,2.4-6.7,2.4-6.7S46.8,42.2,46.8,43.6z"/>
	<path class="st0" d="M28.1,43.6c0,1.3-1.1,2.4-2.4,2.4c-1.3,0-2.4-1.1-2.4-2.4c0-1.3,2.4-6.7,2.4-6.7S28.1,42.2,28.1,43.6z"/>
</g>
<g>
	<path class="st0" d="M46.8,60.4c0,1.3-1.1,2.4-2.4,2.4c-1.3,0-2.4-1.1-2.4-2.4c0-1.3,2.4-6.7,2.4-6.7S46.8,59,46.8,60.4z"/>
	<path class="st0" d="M28.1,60.4c0,1.3-1.1,2.4-2.4,2.4c-1.3,0-2.4-1.1-2.4-2.4c0-1.3,2.4-6.7,2.4-6.7S28.1,59,28.1,60.4z"/>
</g>
<g>
	<g>
		<path class="st0" d="M37.4,51.6c0,1.3-1.1,2.4-2.4,2.4s-2.4-1.1-2.4-2.4c0-1.3,2.4-6.7,2.4-6.7S37.4,50.3,37.4,51.6z"/>
		<path class="st0" d="M18.7,51.6c0,1.3-1.1,2.4-2.4,2.4c-1.3,0-2.4-1.1-2.4-2.4c0-1.3,2.4-6.7,2.4-6.7S18.7,50.3,18.7,51.6z"/>
	</g>
	<g>
		<path class="st0" d="M56.2,51.6c0,1.3-1.1,2.4-2.4,2.4s-2.4-1.1-2.4-2.4c0-1.3,2.4-6.7,2.4-6.7S56.2,50.3,56.2,51.6z"/>
	</g>
</g>
<g>
	<g>
		<path class="st0" d="M37.4,35.7c0,1.3-1.1,2.4-2.4,2.4s-2.4-1.1-2.4-2.4c0-1.3,2.4-6.7,2.4-6.7S37.4,34.4,37.4,35.7z"/>
		<path class="st0" d="M18.7,35.7c0,1.3-1.1,2.4-2.4,2.4c-1.3,0-2.4-1.1-2.4-2.4c0-1.3,2.4-6.7,2.4-6.7S18.7,34.4,18.7,35.7z"/>
	</g>
	<g>
		<path class="st0" d="M56.2,35.7c0,1.3-1.1,2.4-2.4,2.4s-2.4-1.1-2.4-2.4c0-1.3,2.4-6.7,2.4-6.7S56.2,34.4,56.2,35.7z"/>
	</g>
</g>
<path class="st0" d="M62.4,6.5l-19.8,0c-2.8,0-5.3,1.1-7.1,3c-1.8,1.8-3,4.4-3,7.1v0c0,0.8-0.7,1.5-1.5,1.5l-17.2,0
	c-2.2,0-4.1,1.6-4.3,3.7c-0.3,2.5,1.7,4.6,4.2,4.6l42.5,0c2.2,0,4.1-1.6,4.3-3.7c0.3-2.5-1.7-4.6-4.2-4.6H39c-0.8,0-1.5-0.7-1.5-1.5
	v0c0-1.4,0.6-2.7,1.5-3.6c0.9-0.9,2.2-1.5,3.6-1.5h19.9c1.5,0,2.6-1.3,2.5-2.8C64.9,7.4,63.7,6.5,62.4,6.5z"/>
<path class="st0" d="M35,27.3L35,27.3c-0.7,0-1.2-0.5-1.2-1.2v-1.8c0-0.7,0.5-1.2,1.2-1.2l0,0c0.7,0,1.2,0.5,1.2,1.2v1.8
	C36.2,26.8,35.7,27.3,35,27.3z"/>
<path class="st0" d="M37.4,27.3L37.4,27.3c-0.7,0-1.2-0.5-1.2-1.2v-1.8c0-0.7,0.5-1.2,1.2-1.2l0,0c0.7,0,1.2,0.5,1.2,1.2v1.8
	C38.7,26.8,38.1,27.3,37.4,27.3z"/>
<path class="st0" d="M39.9,27.3L39.9,27.3c-0.7,0-1.2-0.5-1.2-1.2v-1.8c0-0.7,0.5-1.2,1.2-1.2h0c0.7,0,1.2,0.5,1.2,1.2v1.8
	C41.1,26.8,40.6,27.3,39.9,27.3z"/>
<path class="st0" d="M42.3,27.3L42.3,27.3c-0.7,0-1.2-0.5-1.2-1.2v-1.8c0-0.7,0.5-1.2,1.2-1.2h0c0.7,0,1.2,0.5,1.2,1.2v1.8
	C43.5,26.8,43,27.3,42.3,27.3z"/>
<path class="st0" d="M44.8,27.3L44.8,27.3c-0.7,0-1.2-0.5-1.2-1.2v-1.8c0-0.7,0.5-1.2,1.2-1.2h0c0.7,0,1.2,0.5,1.2,1.2v1.8
	C46,26.8,45.4,27.3,44.8,27.3z"/>
<path class="st0" d="M47.2,27.3L47.2,27.3c-0.7,0-1.2-0.5-1.2-1.2v-1.8c0-0.7,0.5-1.2,1.2-1.2h0c0.7,0,1.2,0.5,1.2,1.2v1.8
	C48.4,26.8,47.9,27.3,47.2,27.3z"/>
<path class="st0" d="M49.7,27.3L49.7,27.3c-0.7,0-1.2-0.5-1.2-1.2v-1.8c0-0.7,0.5-1.2,1.2-1.2l0,0c0.7,0,1.2,0.5,1.2,1.2v1.8
	C50.9,26.8,50.3,27.3,49.7,27.3z"/>
<path class="st0" d="M52.1,27.3L52.1,27.3c-0.7,0-1.2-0.5-1.2-1.2v-1.8c0-0.7,0.5-1.2,1.2-1.2l0,0c0.7,0,1.2,0.5,1.2,1.2v1.8
	C53.3,26.8,52.8,27.3,52.1,27.3z"/>
<path class="st0" d="M54.5,27.3L54.5,27.3c-0.7,0-1.2-0.5-1.2-1.2v-1.8c0-0.7,0.5-1.2,1.2-1.2h0c0.7,0,1.2,0.5,1.2,1.2v1.8
	C55.8,26.8,55.2,27.3,54.5,27.3z"/>
<path class="st0" d="M15.5,27.3L15.5,27.3c-0.7,0-1.2-0.5-1.2-1.2v-1.8c0-0.7,0.5-1.2,1.2-1.2h0c0.7,0,1.2,0.5,1.2,1.2v1.8
	C16.7,26.8,16.1,27.3,15.5,27.3z"/>
<path class="st0" d="M17.9,27.3L17.9,27.3c-0.7,0-1.2-0.5-1.2-1.2v-1.8c0-0.7,0.5-1.2,1.2-1.2h0c0.7,0,1.2,0.5,1.2,1.2v1.8
	C19.1,26.8,18.6,27.3,17.9,27.3z"/>
<path class="st0" d="M20.4,27.3L20.4,27.3c-0.7,0-1.2-0.5-1.2-1.2v-1.8c0-0.7,0.5-1.2,1.2-1.2h0c0.7,0,1.2,0.5,1.2,1.2v1.8
	C21.6,26.8,21,27.3,20.4,27.3z"/>
<path class="st0" d="M22.8,27.3L22.8,27.3c-0.7,0-1.2-0.5-1.2-1.2v-1.8c0-0.7,0.5-1.2,1.2-1.2h0c0.7,0,1.2,0.5,1.2,1.2v1.8
	C24,26.8,23.5,27.3,22.8,27.3z"/>
<path class="st0" d="M25.3,27.3L25.3,27.3c-0.7,0-1.2-0.5-1.2-1.2v-1.8c0-0.7,0.5-1.2,1.2-1.2h0c0.7,0,1.2,0.5,1.2,1.2v1.8
	C26.5,26.8,25.9,27.3,25.3,27.3z"/>
<path class="st0" d="M27.7,27.3L27.7,27.3c-0.7,0-1.2-0.5-1.2-1.2v-1.8c0-0.7,0.5-1.2,1.2-1.2h0c0.7,0,1.2,0.5,1.2,1.2v1.8
	C28.9,26.8,28.4,27.3,27.7,27.3z"/>
<path class="st0" d="M30.1,27.3L30.1,27.3c-0.7,0-1.2-0.5-1.2-1.2v-1.8c0-0.7,0.5-1.2,1.2-1.2h0c0.7,0,1.2,0.5,1.2,1.2v1.8
	C31.3,26.8,30.8,27.3,30.1,27.3z"/>
<path class="st0" d="M32.6,27.3L32.6,27.3c-0.7,0-1.2-0.5-1.2-1.2v-1.8c0-0.7,0.5-1.2,1.2-1.2h0c0.7,0,1.2,0.5,1.2,1.2v1.8
	C33.8,26.8,33.2,27.3,32.6,27.3z"/>
</svg>
