<?xml version="1.0" encoding="utf-8"?>
<!-- Generator: Adobe Illustrator 22.0.0, SVG Export Plug-In . SVG Version: 6.00 Build 0)  -->
<svg version="1.1" id="Layer_1" xmlns="http://www.w3.org/2000/svg" xmlns:xlink="http://www.w3.org/1999/xlink" x="0px" y="0px"
	 viewBox="0 0 70 70" style="enable-background:new 0 0 70 70;" xml:space="preserve">
<style type="text/css">
	.st0{fill:#00BEBE;}
	.st1{fill:#AFAA04;}
	.st2{fill:#DBDB00;}
	.st3{fill:#E5E5E5;}
	.st4{fill:#FFFFFF;}
	.st5{fill:none;stroke:#FFFFFF;stroke-width:2;stroke-miterlimit:10;}
	.st6{fill:none;stroke:#00BEBE;stroke-width:2;stroke-linecap:round;stroke-linejoin:round;stroke-miterlimit:10;}
	.st7{fill:#C5C3C3;}
	.st8{fill:#ECECEC;}
	.st9{fill:#F3EE5C;}
	.st10{fill:#003B39;}
	.st11{fill:#C2EAE8;}
	.st12{fill:#C4C4C4;}
	.st13{fill:#595959;}
	.st14{fill:none;stroke:#003B39;stroke-miterlimit:10;}
	.st15{fill:none;stroke:#FFFFFF;stroke-miterlimit:10;}
	.st16{fill:#F3360A;}
	.st17{opacity:0.31;clip-path:url(#SVGID_2_);}
	.st18{fill:#A5A5A5;}
	.st19{fill:#B21F0B;}
	.st20{fill:#CE2C0D;}
	.st21{fill:#A09C07;}
	.st22{fill:#F2C5B0;}
	.st23{fill:#D6A896;}
	.st24{fill:#C1978A;}
	.st25{fill:#F4D1C3;}
</style>
<path class="st0" d="M64.5,63.4H6.2l-0.6-1.3c-0.8-1.7-0.5-3.7,0.7-5.1l0,0c1.2-1.3,1.5-3.2,0.8-4.8l-0.9-2.2h58.2l0.9,2.2
	c0.7,1.6,0.3,3.5-0.8,4.8l0,0c-1.2,1.4-1.5,3.4-0.7,5.1L64.5,63.4z"/>
<path class="st0" d="M63.6,46H7.1c-0.5,0-0.9-0.4-0.9-0.9l0,0c0-0.5,0.4-0.9,0.9-0.9h56.5c0.5,0,0.9,0.4,0.9,0.9l0,0
	C64.5,45.6,64.1,46,63.6,46z"/>
<path class="st0" d="M55.7,14.1H15.1c-2.8,0-5-2.2-5-5V4.5h50.6v4.6C60.7,11.8,58.5,14.1,55.7,14.1z"/>
<path class="st0" d="M40.2,36.1c0,2.9-2.3,5.2-5.2,5.2s-5.2-2.3-5.2-5.2c0-2.9,5.2-14.3,5.2-14.3S40.2,33.3,40.2,36.1z"/>
<g>
	<path class="st0" d="M56.6,34.4c0,2.1-1.7,3.8-3.8,3.8S49,36.5,49,34.4c0-2.1,3.8-10.6,3.8-10.6S56.6,32.3,56.6,34.4z"/>
	<path class="st0" d="M21,34.4c0,2.1-1.7,3.8-3.8,3.8s-3.8-1.7-3.8-3.8c0-2.1,3.8-10.6,3.8-10.6S21,32.3,21,34.4z"/>
</g>
<path class="st0" d="M35.5,17.8h-1.1c-0.7,0-1.2-0.5-1.2-1.2v-4.9c0-0.7,0.5-1.2,1.2-1.2h1.1c0.7,0,1.2,0.5,1.2,1.2v4.9
	C36.7,17.3,36.2,17.8,35.5,17.8z"/>
<path class="st0" d="M53.3,17.8h-1.1c-0.7,0-1.2-0.5-1.2-1.2v-4.9c0-0.7,0.5-1.2,1.2-1.2h1.1c0.7,0,1.2,0.5,1.2,1.2v4.9
	C54.5,17.3,54,17.8,53.3,17.8z"/>
<path class="st0" d="M17.8,17.8h-1.1c-0.7,0-1.2-0.5-1.2-1.2v-4.9c0-0.7,0.5-1.2,1.2-1.2h1.1c0.7,0,1.2,0.5,1.2,1.2v4.9
	C19,17.3,18.4,17.8,17.8,17.8z"/>
</svg>
