<?xml version="1.0" encoding="utf-8"?>
<!-- Generator: Adobe Illustrator 22.0.0, SVG Export Plug-In . SVG Version: 6.00 Build 0)  -->
<svg version="1.1" id="Layer_1" xmlns="http://www.w3.org/2000/svg" xmlns:xlink="http://www.w3.org/1999/xlink" x="0px" y="0px"
	 viewBox="0 0 36 36" style="enable-background:new 0 0 36 36;" xml:space="preserve">
<style type="text/css">
	.st0{fill:#00BEBE;}
	.st1{fill:#AFAA04;}
	.st2{fill:#DBDB00;}
	.st3{fill:#E5E5E5;}
	.st4{fill:#FFFFFF;}
	.st5{fill:none;stroke:#FFFFFF;stroke-width:2;stroke-miterlimit:10;}
	.st6{fill:none;stroke:#00BEBE;stroke-width:2;stroke-linecap:round;stroke-linejoin:round;stroke-miterlimit:10;}
	.st7{fill:#C5C3C3;}
	.st8{fill:#ECECEC;}
	.st9{fill:#F3EE5C;}
	.st10{fill:#003B39;}
	.st11{fill:#C2EAE8;}
	.st12{fill:#C4C4C4;}
	.st13{fill:#595959;}
	.st14{fill:none;stroke:#003B39;stroke-miterlimit:10;}
	.st15{fill:none;stroke:#FFFFFF;stroke-miterlimit:10;}
	.st16{fill:#F3360A;}
	.st17{opacity:0.31;clip-path:url(#SVGID_2_);}
	.st18{fill:#A5A5A5;}
	.st19{fill:#B21F0B;}
	.st20{fill:#CE2C0D;}
	.st21{fill:#A09C07;}
	.st22{fill:#F2C5B0;}
	.st23{fill:#D6A896;}
	.st24{fill:#C1978A;}
	.st25{fill:#F4D1C3;}
</style>
<g>
	<ellipse class="st0" cx="9.5" cy="14.9" rx="1.5" ry="2.5"/>
	<path class="st0" d="M31.1,8.8H4.9c-1.7,0-3,1.3-3,3v12.5c0,1.7,1.3,3,3,3h26.2c1.7,0,3-1.3,3-3V11.8C34.1,10.1,32.7,8.8,31.1,8.8z
		 M9.5,17.4c-0.4,0.2-0.9,0.4-1.5,0.4c-1.6,0-2.9-1.3-2.9-2.9S6.5,12,8.1,12c0.5,0,1,0.2,1.5,0.4C10,12.2,10.5,12,11,12
		c1.6,0,2.9,1.3,2.9,2.9s-1.3,2.9-2.9,2.9C10.5,17.8,10,17.7,9.5,17.4z M13.9,23.9h-1.6c-0.6,0-1-0.4-1-1s0.4-1,1-1h1.6
		c0.6,0,1,0.4,1,1S14.4,23.9,13.9,23.9z M18.9,23.9h-1.6c-0.6,0-1-0.4-1-1s0.4-1,1-1h1.6c0.6,0,1,0.4,1,1S19.4,23.9,18.9,23.9z
		 M23.9,23.9h-1.6c-0.6,0-1-0.4-1-1s0.4-1,1-1h1.6c0.6,0,1,0.4,1,1S24.4,23.9,23.9,23.9z M28.9,23.9h-1.6c-0.6,0-1-0.4-1-1
		s0.4-1,1-1h1.6c0.6,0,1,0.4,1,1S29.4,23.9,28.9,23.9z"/>
</g>
</svg>
