<?xml version="1.0" encoding="utf-8"?>
<!-- Generator: Adobe Illustrator 22.0.0, SVG Export Plug-In . SVG Version: 6.00 Build 0)  -->
<svg version="1.1" id="Layer_1" xmlns="http://www.w3.org/2000/svg" xmlns:xlink="http://www.w3.org/1999/xlink" x="0px" y="0px"
	 viewBox="0 0 182 57" style="enable-background:new 0 0 182 57;" xml:space="preserve">
<style type="text/css">
	.st0{fill:#00A5AE;}
	.st1{fill:#003C3A;}
</style>
<g>
	<g>
		<g>
			<path class="st0" d="M26.4,24.7c0,3.2-1.1,5.6-3.2,7.4c-2.1,1.7-5.2,2.6-9.3,2.6c-2.4,0-4.8-0.4-7-1.1c-2.3-0.7-4.2-1.6-5.7-2.7
				l4.1-6.7c1.2,0.9,2.6,1.6,4.1,2.2c1.5,0.6,3.1,0.9,4.7,0.9c1.6,0,2.6-0.1,3.1-0.4c0.5-0.3,0.8-0.8,0.8-1.6c0-0.6-0.3-1.1-0.9-1.5
				c-0.6-0.4-2-0.8-4.2-1.4c-4-1-6.8-2.2-8.4-3.6c-1.6-1.4-2.4-3.5-2.4-6.4c0-2.9,1.1-5.3,3.2-7.1c2.2-1.8,5-2.7,8.7-2.7
				c2.5,0,4.7,0.3,6.6,0.9c1.9,0.6,3.7,1.5,5.4,2.7L22,13.1c-1.3-0.9-2.7-1.6-4.1-2.1c-1.4-0.5-2.9-0.8-4.3-0.8
				c-1.3,0-2.2,0.2-2.5,0.6c-0.4,0.4-0.6,0.8-0.6,1.3c0,0.6,0.3,1,1,1.4c0.7,0.4,2,0.8,4,1.2c3.8,0.9,6.6,2.1,8.3,3.5
				C25.6,19.5,26.4,21.7,26.4,24.7z"/>
			<path class="st0" d="M59.8,34.1h-9.9L43.5,21l-3.1,3.8v9.3h-8.5V3.3h8.5v3.6c0,1,0,2.1,0,3.5c0,1.4-0.1,2.7-0.1,4.2
				c0.7-1.1,1.6-2.4,2.7-4c1.2-1.6,2.2-3,3.1-4.1l2.4-3.1h10.2l-9.1,10.9L59.8,34.1z"/>
			<path class="st0" d="M72.6,34.1H64V3.3h8.5V34.1z"/>
			<path class="st0" d="M105.6,34.1h-6.8L91.6,24c-0.7-1-1.6-2.3-2.5-3.7c-1-1.5-1.7-2.6-2.2-3.5c0.1,0.8,0.2,2,0.2,3.6
				c0,1.6,0,3.1,0,4.4v9.4h-8V3.3h7.4l6.6,9.1c0.8,1.1,1.7,2.4,2.7,3.9c1,1.5,1.7,2.7,2,3.4c-0.1-0.7-0.2-1.8-0.2-3.4
				c0-1.5,0-3.1,0-4.6V3.3h8V34.1z"/>
			<path class="st0" d="M140.5,34.1h-9l-1.7-5.4h-9l-1.7,5.4h-9l11-30.9h8.5L140.5,34.1z M127.8,21.9l-0.6-2c-0.5-2-0.9-3.5-1.2-4.6
				c-0.3-1.1-0.5-2.1-0.7-3.2c-0.2,1-0.4,2.1-0.7,3.2c-0.3,1.1-0.7,2.6-1.2,4.5l-0.6,2H127.8z"/>
			<path class="st0" d="M166.9,34.1H145V3.3h8.5v23.4h13.4V34.1z"/>
			<path class="st0" d="M180.6,34.1H172V3.3h8.5V34.1z"/>
		</g>
		<g>
			<path class="st1" d="M10.9,53.8H10l-0.3-2.4H2.5l-0.3,2.4H1.3v-3.6h1.1C2.6,50,2.8,49.6,3,49.1c0.2-0.5,0.4-1.4,0.6-2.7
				C3.8,45.1,4,43.6,4,41.9h5.5v8.3h1.4V53.8z M8.2,50.2v-7.2h-3c-0.1,3.2-0.6,5.6-1.4,7.2H8.2z"/>
			<path class="st1" d="M19.6,50.6c-0.8,0.6-1.9,1-3.2,1c-1.4,0-2.4-0.4-3.1-1.3c-0.7-0.9-1-2.1-1-3.6c0-1.6,0.4-2.8,1.1-3.7
				c0.7-0.9,1.7-1.3,3-1.3c0.5,0,0.9,0,1.3,0.1c0.4,0.1,0.7,0.3,1.1,0.5c0.4,0.3,0.6,0.6,0.8,1.2c0.2,0.5,0.3,1.2,0.3,1.9
				c0,0.4,0,0.8-0.1,1.2h-6.2c0,2.5,1.1,3.8,3.2,3.8c0.4,0,0.8-0.1,1.2-0.2c0.4-0.2,0.8-0.3,1-0.6L19.6,50.6z M13.7,45.6h4.9
				c0-1.8-0.7-2.7-2.2-2.7C14.7,42.8,13.8,43.7,13.7,45.6z"/>
			<path class="st1" d="M24.7,47h-0.9v4.3h-1.3v-9.4h1.3v4.3l0.9-0.3l3.2-4h1.4l-3.1,3.8l-0.7,0.6l1,0.8l3.3,4.2h-1.7L24.7,47z"/>
			<path class="st1" d="M31.7,43c0.7-0.9,1.7-1.3,3-1.3c1.4,0,2.4,0.4,3,1.3c0.7,0.9,1,2.1,1,3.6c0,1.6-0.4,2.8-1.1,3.7
				c-0.7,0.9-1.7,1.3-3,1.3c-1.4,0-2.4-0.4-3-1.3c-0.7-0.9-1-2.1-1-3.6C30.7,45.1,31,43.8,31.7,43z M32.7,49.4
				c0.4,0.7,1.1,1.1,2.1,1.1c1.8,0,2.7-1.3,2.7-3.8c0-1.1-0.2-2-0.7-2.7c-0.4-0.7-1.1-1.1-2.1-1.1c-1.8,0-2.7,1.3-2.7,3.8
				C32.1,47.7,32.3,48.6,32.7,49.4z"/>
			<path class="st1" d="M41.4,41.9h0.8l0.3,1.1h0.1c0.6-0.9,1.5-1.4,2.7-1.4c1.3,0,2.2,0.4,2.8,1.1c0.6,0.8,0.9,2,0.9,3.6
				c0,1.6-0.4,2.8-1.2,3.7c-0.8,0.9-1.8,1.4-3.1,1.4c-0.8,0-1.4-0.1-2.1-0.4v3.9h-1.3V41.9z M42.6,45v4.8c0.5,0.4,1.2,0.6,2.1,0.6
				c0.9,0,1.6-0.4,2.2-1.1c0.5-0.7,0.8-1.7,0.8-2.9c0-2.4-0.9-3.6-2.6-3.6C43.7,42.8,42.9,43.6,42.6,45z"/>
			<path class="st1" d="M51.4,42.6c0.9-0.6,2.1-0.8,3.6-0.8c0.6,0,1.1,0.1,1.5,0.3c0.4,0.2,0.7,0.4,0.9,0.7c0.2,0.3,0.3,0.6,0.4,0.9
				c0.1,0.3,0.1,0.6,0.1,1c0,0.5,0,1.3-0.1,2.3c0,1-0.1,1.7-0.1,2.1c0,1,0.1,1.8,0.2,2.4h-0.9l-0.4-1.3h-0.1c-0.7,1-1.6,1.4-3,1.4
				c-0.8,0-1.5-0.2-2-0.7c-0.5-0.5-0.8-1.1-0.8-1.9c0-1,0.4-1.8,1.2-2.2c0.8-0.4,1.9-0.6,3.4-0.6c0.3,0,0.7,0,1.1,0
				c0-0.5,0.1-0.9,0.1-1.1c0-0.8-0.1-1.3-0.4-1.6s-0.8-0.4-1.6-0.4c-0.4,0-0.9,0.1-1.5,0.2c-0.6,0.1-1,0.3-1.3,0.5L51.4,42.6z
				 M55.6,49.9c0.4-0.3,0.7-0.7,0.9-1.1v-1.6c-0.4,0-0.8-0.1-1.2-0.1c-2.1,0-3.2,0.6-3.2,1.7c0,0.5,0.2,0.9,0.5,1.2
				c0.3,0.3,0.8,0.5,1.3,0.5C54.6,50.4,55.2,50.2,55.6,49.9z"/>
			<path class="st1" d="M66.7,43.1h-3v8.3h-1.3v-8.3h-3v-1.1h7.3V43.1z"/>
			<path class="st1" d="M74.2,45.5l0-1.1h-0.1l-0.8,1.2L69,51.3h-0.7v-9.4h1.3v6l0,1.1h0.1l0.7-1.1l4.4-6h0.7v9.4h-1.3V45.5z"/>
			<path class="st1" d="M78.6,41.9c1.5-0.1,2.6-0.2,3.1-0.2c1.2,0,2,0.2,2.6,0.6c0.5,0.4,0.8,1,0.8,1.7c0,0.5-0.1,0.9-0.4,1.3
				c-0.3,0.4-0.7,0.7-1.3,0.9v0.1c0.7,0.1,1.2,0.4,1.6,0.8c0.3,0.4,0.5,0.9,0.5,1.5c0,1.9-1.4,2.8-4.1,2.8c-0.9,0-1.8-0.1-2.7-0.2
				V41.9z M81.8,45.9c0.5,0,0.9-0.2,1.3-0.5c0.4-0.3,0.6-0.7,0.6-1.1c0-0.5-0.2-0.9-0.5-1.1c-0.3-0.2-0.9-0.3-1.7-0.3
				c-0.2,0-0.8,0-1.8,0.1v3H81.8z M79.8,50.3c0.5,0.1,1,0.1,1.7,0.1c0.9,0,1.5-0.1,2-0.4c0.4-0.3,0.6-0.7,0.6-1.3
				c0-1.1-0.8-1.6-2.5-1.6h-1.8V50.3z"/>
			<path class="st1" d="M93.8,47.1h-4.5v4.3h-1.3v-9.4h1.3v4h4.5v-4H95v9.4h-1.3V47.1z"/>
			<path class="st1" d="M99.4,45.6c0.6-0.1,1.1-0.1,1.6-0.1c2.2,0,3.4,0.9,3.4,2.8c0,1.1-0.3,2-0.9,2.5c-0.6,0.5-1.6,0.8-3,0.8
				c-0.7,0-1.4,0-2.3-0.1v-9.4h1.3V45.6z M99.4,50.2c0.5,0.1,1,0.1,1.4,0.1c1.5,0,2.3-0.6,2.3-1.9c0-1.2-0.7-1.8-2.2-1.8
				c-0.6,0-1.1,0-1.4,0.1V50.2z M106,41.9h1.3v9.4H106V41.9z"/>
			<path class="st1" d="M117.1,50.6c-0.8,0.6-1.9,1-3.2,1c-1.4,0-2.4-0.4-3.1-1.3c-0.7-0.9-1-2.1-1-3.6c0-1.6,0.4-2.8,1.1-3.7
				c0.7-0.9,1.7-1.3,3-1.3c0.5,0,0.9,0,1.3,0.1c0.4,0.1,0.7,0.3,1.1,0.5c0.4,0.3,0.6,0.6,0.8,1.2c0.2,0.5,0.3,1.2,0.3,1.9
				c0,0.4,0,0.8-0.1,1.2h-6.2c0,2.5,1.1,3.8,3.2,3.8c0.4,0,0.8-0.1,1.2-0.2c0.4-0.2,0.8-0.3,1-0.6L117.1,50.6z M111.2,45.6h4.9
				c0-1.8-0.7-2.7-2.2-2.7C112.3,42.8,111.4,43.7,111.2,45.6z"/>
			<path class="st1" d="M130.8,43.1h-4.4v8.3h-1.3v-9.4h7v9.4h-1.3V43.1z"/>
			<path class="st1" d="M135,42.6c0.9-0.6,2.1-0.8,3.6-0.8c0.6,0,1.1,0.1,1.5,0.3c0.4,0.2,0.7,0.4,0.9,0.7c0.2,0.3,0.3,0.6,0.4,0.9
				c0.1,0.3,0.1,0.6,0.1,1c0,0.5,0,1.3-0.1,2.3c0,1-0.1,1.7-0.1,2.1c0,1,0.1,1.8,0.2,2.4h-0.9l-0.4-1.3h-0.1c-0.7,1-1.6,1.4-3,1.4
				c-0.8,0-1.5-0.2-2-0.7c-0.5-0.5-0.8-1.1-0.8-1.9c0-1,0.4-1.8,1.2-2.2c0.8-0.4,1.9-0.6,3.4-0.6c0.3,0,0.7,0,1.1,0
				c0-0.5,0.1-0.9,0.1-1.1c0-0.8-0.1-1.3-0.4-1.6c-0.3-0.3-0.8-0.4-1.6-0.4c-0.4,0-0.9,0.1-1.5,0.2c-0.6,0.1-1,0.3-1.3,0.5L135,42.6
				z M139.3,49.9c0.4-0.3,0.7-0.7,0.9-1.1v-1.6c-0.4,0-0.8-0.1-1.2-0.1c-2.1,0-3.2,0.6-3.2,1.7c0,0.5,0.2,0.9,0.5,1.2
				c0.3,0.3,0.8,0.5,1.3,0.5C138.3,50.4,138.9,50.2,139.3,49.9z"/>
			<path class="st1" d="M150.4,47.1h-4.5v4.3h-1.3v-9.4h1.3v4h4.5v-4h1.3v9.4h-1.3V47.1z"/>
			<path class="st1" d="M161.5,50.6c-0.8,0.6-1.9,1-3.2,1c-1.4,0-2.4-0.4-3.1-1.3c-0.7-0.9-1-2.1-1-3.6c0-1.6,0.4-2.8,1.1-3.7
				c0.7-0.9,1.7-1.3,3-1.3c0.5,0,0.9,0,1.3,0.1c0.4,0.1,0.7,0.3,1.1,0.5c0.4,0.3,0.6,0.6,0.8,1.2c0.2,0.5,0.3,1.2,0.3,1.9
				c0,0.4,0,0.8-0.1,1.2h-6.2c0,2.5,1.1,3.8,3.2,3.8c0.4,0,0.8-0.1,1.2-0.2c0.4-0.2,0.8-0.3,1-0.6L161.5,50.6z M155.6,45.6h4.9
				c0-1.8-0.7-2.7-2.2-2.7C156.6,42.8,155.7,43.7,155.6,45.6z"/>
			<path class="st1" d="M169,43.1h-2.9c-0.2,2.7-0.4,4.6-0.6,5.7c-0.4,1.8-1.1,2.6-2.1,2.6c-0.4,0-0.7-0.1-1-0.2l0.2-1.1
				c0.2,0.1,0.4,0.1,0.5,0.1c0.3,0,0.5-0.1,0.7-0.3c0.2-0.2,0.4-0.6,0.5-1.2c0.2-0.6,0.3-1.4,0.4-2.6c0.1-1.1,0.2-2.5,0.2-4.2h5.4
				v9.4H169V43.1z"/>
			<path class="st1" d="M179.3,45.5l0-1.1h-0.1l-0.8,1.2l-4.4,5.8h-0.7v-9.4h1.3v6l0,1.1h0.1l0.7-1.1l4.4-6h0.7v9.4h-1.3V45.5z"/>
		</g>
	</g>
</g>
</svg>
